<?xml version="1.0" standalone="no"?>
<!DOCTYPE svg PUBLIC "-//W3C//DTD SVG 20010904//EN"
 "http://www.w3.org/TR/2001/REC-SVG-20010904/DTD/svg10.dtd">
<svg version="1.0" xmlns="http://www.w3.org/2000/svg"
 width="16.000000pt" height="16.000000pt" viewBox="0 0 16.000000 16.000000"
 preserveAspectRatio="xMidYMid meet">

<g transform="translate(0.000000,16.000000) scale(0.100000,-0.100000)"
fill="#000000" stroke="none">
<path d="M60 141 c0 -5 7 -12 16 -15 27 -10 36 -7 20 9 -16 17 -36 20 -36 6z"/>
<path d="M10 100 c0 -5 4 -10 9 -10 5 0 11 -18 15 -40 6 -38 8 -40 44 -40 33
0 37 3 39 28 5 53 -4 70 -35 67 -16 -1 -34 -5 -40 -9 -7 -4 -12 -2 -12 3 0 6
-4 11 -10 11 -5 0 -10 -4 -10 -10z m44 -21 c-5 -9 2 -10 22 -6 27 6 28 6 6 -5
-15 -7 -21 -17 -17 -27 5 -14 4 -14 -11 1 -15 15 -14 48 1 48 4 0 3 -5 -1 -11z"/>
<path d="M131 75 c1 -40 1 -40 11 -12 7 21 7 32 -1 40 -8 8 -11 0 -10 -28z"/>
</g>
</svg>
